# xmcd
#
# Track frame offsets:
#	150
#	16740
#	33655
#	52385
#	68182
#	84282
#	103175
#	119285
#	135327
#	151932
#	168852
#	187575
#	203382
#	219555
#	238435
#	254545
#
# Disc length: 3608 seconds
#
# Revision: 1
# Processed by: cddbd v1.5.1PL2 Copyright (c) Steve Scherf et al.
# Submitted via: audiograbber 1.83.01
#
DISCID=d50e1610
DTITLE=Various Artist - Sc3058
DYEAR=1900
DGENRE=Country
TTITLE0=Jackson, Alan - House With No Curtains, A
TTITLE1=Anderson, John - Takin' The Country Back
TTITLE2=McCready, Mindy - You'll Never Know
TTITLE3=Yearwood, Trisha - Perfect Love
TTITLE4=Messina, Jo Dee - Bye Bye
TTITLE5=Collins, Jim - Next Step, The
TTITLE6=Peterson, Michael - Too Good To Be True
TTITLE7=Adkins, Trace - Lonely Won't Leave Me Alone
TTITLE8=Jackson, Alan (Vocal) - House With No Curtains, A
TTITLE9=Anderson, John (Vocal) - Takin' The Country Back
TTITLE10=McCready, Mindy (Vocal) - You'll Never Know
TTITLE11=Yearwood, Trisha (Vocal) - Perfect Love
TTITLE12=Messina, Jo Dee (Vocal) - Bye Bye
TTITLE13=Collins, Jim (Vocal) - Next Step, The
TTITLE14=Peterson, Michael (Vocal) - Too Good To Be True
TTITLE15=Adkins, Trace (Vocal) - Lonely Won't Leave Me Alone
EXTD=
EXTT0=
EXTT1=
EXTT2=
EXTT3=
EXTT4=
EXTT5=
EXTT6=
EXTT7=
EXTT8=
EXTT9=
EXTT10=
EXTT11=
EXTT12=
EXTT13=
EXTT14=
EXTT15=
PLAYORDER=
